PathFileType	4	(X/Y/Z)	Apose_0-124.trc
DataRate	CameraRate	NumFrames	NumMarkers	Units	OrigDataRate	OrigDataStartFrame	OrigNumFrames
30	30	6	22	m	30	108	124
Frame#	Time	Hip			RHip			RKnee			RAnkle			RBigToe			RSmallToe			RHeel			LHip			LKnee			LAnkle			LBigToe			LSmallToe			LHeel			Neck			Head			Nose			RShoulder			RElbow			RWrist			LShoulder			LElbow			LWrist		
		X1	Y1	Z1	X2	Y2	Z2	X3	Y3	Z3	X4	Y4	Z4	X5	Y5	Z5	X6	Y6	Z6	X7	Y7	Z7	X8	Y8	Z8	X9	Y9	Z9	X10	Y10	Z10	X11	Y11	Z11	X12	Y12	Z12	X13	Y13	Z13	X14	Y14	Z14	X15	Y15	Z15	X16	Y16	Z16	X17	Y17	Z17	X18	Y18	Z18	X19	Y19	Z19	X20	Y20	Z20	X21	Y21	Z21	X22	Y22	Z22
109	3.633333333333333	0.7972239654405443	0.8514596341430689	0.3459513979420866	0.8040718771125027	0.8115858940921156	0.2639668671983145	0.8268925470338956	0.46446252234684765	0.2761361276244565	0.836126296412908	0.1069032538513419	0.286674700231371	0.6696595839105806	0.03797737712826106	0.21376735154483242	0.7299909732692417	0.03162577589379967	0.1690588719021399	0.8657036785179987	0.03698694691166023	0.2991774735317237	0.7991260627980352	0.8105010270043469	0.43641550079922986	0.8228598645161608	0.4854811563100465	0.4302667956098937	0.8479724218789645	0.10600443600809338	0.424374417879756	0.6689561968827414	0.0400487496529621	0.46735864900842566	0.7279150146986201	0.0298828376389276	0.5175726357590738	0.8825471011236262	0.03720523503715169	0.4228556744120985	0.8067995415689695	1.4603624751553053	0.361030481791344	0.7745863530357451	1.686787078118974	0.36307885251249455	0.6732251435790335	1.5758128354426288	0.35497442475696367	0.826499055547107	1.3743149234133358	0.17132512826664942	0.8507201336476354	1.1864911434997087	-0.015772687003407906	0.8197672723446626	1.0872070437183254	-0.18784331749463945	0.8128265823642351	1.3643999279361014	0.5400431652164274	0.7951277689103751	1.1699358601799084	0.7162056398811792	0.7800110291503091	1.0582541215609333	0.8826125882468855
110	3.6666666666666665	0.7972764363989556	0.851143755114596	0.346006688641754	0.804295368790229	0.8111393943176847	0.2639889710464505	0.8266802381564488	0.464833817220965	0.2760658279230761	0.8360870172328807	0.10715283179925242	0.2864239896918824	0.6699130378172669	0.038128860620772725	0.21410752059986352	0.7300704896344071	0.031689822093735505	0.16931682398427916	0.8659735723400861	0.03703813283594057	0.2991068761083034	0.7993120274015599	0.8098365394002868	0.43642039679002087	0.8231912454780725	0.4854267579345189	0.43026672901884927	0.8480006274967279	0.10606320883063565	0.4246288896077064	0.6684694726506271	0.03996161740596841	0.4672752043154207	0.7280032857275838	0.030067624923613777	0.5176609822182228	0.882254618664785	0.03664425427198145	0.4225334777439791	0.8068736044761888	1.4602232319958668	0.36104387865334825	0.7740822337477121	1.686960463278879	0.3627648516417524	0.670221003579195	1.5765223507973238	0.35910421642761914	0.8264263440329912	1.3743294106952268	0.17105291621962124	0.8512398980923985	1.1858107579670885	-0.01641447409811403	0.8194265533459703	1.0866465740975713	-0.1875490672211674	0.8125332690019106	1.36393723368973	0.5402771225998717	0.7950876792263066	1.1700986058566798	0.7156712211538565	0.7804629753999742	1.0584027328472791	0.8821291290645881
111	3.7	0.7973054846416054	0.8508227544378787	0.3460587472863809	0.8045332245221755	0.8108072921609041	0.2637758747152391	0.8263980874561119	0.46499034201717343	0.27576243192019345	0.8361669818610934	0.10728402241192521	0.2861772096731529	0.6702394455278177	0.03818252126980686	0.21443854585487793	0.7301597488276927	0.03166194857437275	0.1695840510559564	0.8662642779593864	0.03700873011526241	0.29899184279088564	0.7994156656245995	0.8092556926019072	0.4364315505954357	0.823419030858797	0.48556188319991567	0.4303317779623503	0.8477832321180695	0.10636943944080325	0.42501848772898554	0.6677016238289754	0.03953067970882049	0.4668611059196999	0.7279347926076001	0.030179052895621148	0.5177775694544188	0.8820718606773472	0.03647907899988086	0.422502292142217	0.8068568931349104	1.4600833295305669	0.36097239558297417	0.7746766413071208	1.686869579439081	0.36348215414001667	0.668753555904896	1.5770017237690621	0.36156194624923554	0.8264999501015239	1.3743952284459742	0.17080759190218914	0.8513919938080814	1.185484773926199	-0.016784737487799347	0.8196900106782689	1.0862875775930503	-0.18727511620815407	0.8121469210671336	1.3633722009079654	0.5404558265529459	0.7958852802302073	1.1697163258706123	0.7160040338159288	0.7806819314483433	1.0588053520304452	0.8817308691344872
112	3.733333333333333	0.7973088691282415	0.8505238070415063	0.346097384883008	0.804756235877057	0.8106322024156254	0.2633362991627976	0.8260316429057677	0.46497439043424676	0.27523281617989487	0.8363617473702613	0.10719165747580175	0.28598925217677434	0.6705930195143048	0.038150840516167774	0.2146614043465777	0.7302674680519873	0.03161016309989838	0.16970369489123202	0.8665594364925329	0.03685376852741677	0.2988389990667747	0.7994464471740981	0.8087859734101474	0.43647643147104453	0.8235023609291038	0.48585429879465786	0.43046918452017235	0.8475768155307264	0.10717844888806413	0.4252421864864818	0.6666256878539558	0.03857233179313161	0.4658851807542087	0.7277172081371966	0.030220126676699818	0.5178515645159862	0.8820026348455949	0.03672693893515771	0.42269168706072363	0.8067140199400742	1.459981322012925	0.36082447202608026	0.7756345912420671	1.6866562888860135	0.36444500170307226	0.6693025189468941	1.5772957991987697	0.36168400787575306	0.8267260412374976	1.3745322685815102	0.1706316582877471	0.8509279823961835	1.1858460516511968	-0.016402207401609095	0.8207559568867285	1.086197686498544	-0.18696301626705633	0.811794288073136	1.3627484516533668	0.5405079691991885	0.7977522741807616	1.1685753334604962	0.7176305610727347	0.7805899802086511	1.0595044265544373	0.8816750178606515
113	3.7666666666666666	0.7972961373294426	0.8502762846920453	0.3461037085569418	0.8049474367710044	0.8106531483024477	0.2627305569140984	0.8255886355882849	0.46493336572382754	0.27455490127696286	0.8366481230399964	0.10694374377169755	0.28587611249018247	0.6709484092745156	0.038039689456531314	0.21471718965003297	0.7304381250549321	0.03158969348334531	0.16961951854017895	0.8668334417814917	0.036640205941873845	0.29868137597700134	0.7994338769324727	0.8084658659708117	0.43657843049768696	0.8234593602994557	0.4862660797367388	0.4306100154452742	0.8475216584579438	0.1084291237633927	0.42522649452927586	0.6652334312376891	0.03706799797981424	0.4642620813794338	0.7274315048284954	0.03023633720177438	0.5178301788443899	0.8820778019855905	0.03737008480489086	0.4230466382373634	0.8064569936073129	1.4599387165045055	0.36059846566253984	0.7760967702774944	1.6865164664081935	0.3647637775606352	0.6724384438779324	1.5773858841225505	0.35861968973127656	0.8270687895514429	1.3746953888364433	0.17045368128434832	0.8497763648221299	1.1870505759034415	-0.015000403926957031	0.8224882876486656	1.0863576380848259	-0.1866577069653784	0.8115900919291205	1.3620756503930125	0.5403973908314925	0.8008179904840406	1.1665701530984876	0.7208158083773948	0.7801052432140244	1.060470218478279	0.8820559373710999
114	3.8	0.7972927897689285	0.8501069766613438	0.3460731191059792	0.8050726599064763	0.8108834583299085	0.26205427064658127	0.8250920897270032	0.46501545824869334	0.2737995217206541	0.8369983021203792	0.10672201109507785	0.28577053938175895	0.6713109882525246	0.03788213300150685	0.2146666680066269	0.7306711633477592	0.03165086054184175	0.16941968391220497	0.8670642166602817	0.03649693557916366	0.2985248519017411	0.7994284472617904	0.8083601758909624	0.43673811253434225	0.8233608174669803	0.48677606551275576	0.4306538953501538	0.8476085133091351	0.10971442825605236	0.42513296270612955	0.6636810434549791	0.03527770539467123	0.4622053182139835	0.7271590583424747	0.030248985165959242	0.5177114541284614	0.8823061620472374	0.03829827261052454	0.4234926570770828	0.8061568992502826	1.459940113901936	0.3602639831313574	0.7758714625749579	1.6865530689531605	0.3642167595334391	0.678749470729988	1.5771879369785493	0.3514717793869277	0.8274947492831112	1.374796445756917	0.17017181502506304	0.8480988950917127	1.188979290399021	-0.012678043208858404	0.8244898748881616	1.086652194645791	-0.18648752098230792	0.8115813663542402	1.3612929947378138	0.5401342668489041	0.8048618687937523	1.1638662257511632	0.7253368124931889	0.7793130746254096	1.0615807347937538	0.8828447721837555
